<svg version="1.1" width="300" height="300" viewBox="0 0 300 300" xmlns="http://www.w3.org/2000/svg">
	<circle cx="150" cy="30" r="25" fill="white" stroke="#003249" stroke-width="4" />
	<!--Shoulders, Right side, Right leg-->
	<path d="
			M 115,65
			h 70
			L 195,182.5
			L 210,290
			Q 200,300 190,290
			L 153,200
		" fill="white" stroke="#003249" stroke-width="4" />
	<!--Left leg, Left side, Left arm-->
	<path d="
			M 170,182.5
			h -15
			L 140,290
			Q 130,300 120,290
			L 112.5,182.5
			L 115,90
			L 72.75,120.29
			L 90,146
			Q 95,160 80,160
			L 55,131.6
			Q 45,121.6 55,111.6
			L 116,65
		" fill="white" stroke="#003249" stroke-width="4" />
	<!--Right filled in leg-->
	<path d="
			M 195,182.5
			L 210,290
			Q 200,300 190,290
			L 153,200
			L 155,182.5
			h 15
		" fill="#c3e0e4" stroke="#003249" stroke-width="4" />
	<!--Right arm-->
	<path d="
			M 186,65
			L 215,100
			L 250, 95
			Q 262,101 252,110
			L 210,120
			L 190,110
		" fill="#c3e0e4" stroke="#003249" stroke-width="4" stroke-linecap="round" />
	<line x1="72.75" y1="120.29" x2="68.4375" y2="113.8625" stroke="#003249" stroke-width="4" />
</svg>